<svg width="270" height="270" viewBox="0 0 270 270" fill="none" xmlns="http://www.w3.org/2000/svg">
<g clip-path="url(#clip0_83_6)">
<rect width="270" height="270" rx="21" fill="white"/>
<path d="M0 181H181V270H21C9.40202 270 4.10741e-07 260.598 0 249V181Z" fill="#E9ECEF"/>
<path d="M270 179H183V90H270V179Z" fill="#E9ECEF"/>
<path d="M91 0V88H0V21C3.67251e-06 9.40202 9.40202 4.10714e-07 21 0H91Z" fill="#E9ECEF"/>
<path d="M92 4.37114e-08L92 270M182 4.37114e-08L182 270M270 89L0 89M270 180L0 180" stroke="#CED4DA" stroke-width="9"/>
<path d="M62.968 67.44C64.504 67.44 65.784 67.952 66.808 68.976C67.832 70 68.344 71.28 68.344 72.816C68.344 74.288 67.832 75.536 66.808 76.56C65.784 77.52 64.504 78 62.968 78H30.328C28.664 78 27.352 77.488 26.392 76.464C25.432 75.44 24.952 74.128 24.952 72.528C24.952 70.928 25.528 69.52 26.68 68.304L47.608 45.936C49.976 43.376 51.832 40.752 53.176 38.064C54.584 35.376 55.288 33.04 55.288 31.056C55.288 27.856 54.36 25.296 52.504 23.376C50.648 21.392 48.184 20.4 45.112 20.4C43.896 20.4 42.648 20.688 41.368 21.264C40.088 21.84 38.84 22.64 37.624 23.664C36.472 24.688 35.384 25.872 34.36 27.216C33.592 28.24 32.824 28.88 32.056 29.136C31.288 29.392 30.584 29.52 29.944 29.52C28.536 29.52 27.224 29.008 26.008 27.984C24.856 26.896 24.28 25.648 24.28 24.24C24.28 23.152 24.632 22.096 25.336 21.072C26.104 20.048 27.032 18.992 28.12 17.904C29.72 16.304 31.512 14.896 33.496 13.68C35.48 12.464 37.528 11.536 39.64 10.896C41.752 10.192 43.8 9.84 45.784 9.84C50.072 9.84 53.784 10.704 56.92 12.432C60.12 14.096 62.584 16.496 64.312 19.632C66.04 22.704 66.904 26.352 66.904 30.576C66.904 34.096 65.848 38.032 63.736 42.384C61.688 46.672 58.904 50.704 55.384 54.48L42.424 68.304L41.368 67.44H62.968Z" fill="#212529"/>
<path d="M236.344 171C234.744 171 233.4 170.456 232.312 169.368C231.224 168.216 230.68 166.808 230.68 165.144V120.024L232.696 120.504L214.168 143.448L213.688 142.2H247.672C249.208 142.2 250.488 142.712 251.512 143.736C252.536 144.76 253.048 146.04 253.048 147.576C253.048 149.048 252.536 150.296 251.512 151.32C250.488 152.28 249.208 152.76 247.672 152.76H205.72C204.376 152.76 203.064 152.216 201.784 151.128C200.568 150.04 199.96 148.696 199.96 147.096C199.96 145.688 200.44 144.408 201.4 143.256L231.736 106.104C232.248 105.4 232.92 104.856 233.752 104.472C234.584 104.024 235.512 103.8 236.536 103.8C238.2 103.8 239.544 104.376 240.568 105.528C241.656 106.616 242.2 107.992 242.2 109.656V165.144C242.2 166.808 241.624 168.216 240.472 169.368C239.384 170.456 238.008 171 236.344 171Z" fill="#212529"/>
<path d="M142.848 260C141.056 260 139.584 259.456 138.432 258.368C137.28 257.216 136.704 255.808 136.704 254.144V205.76L138.048 207.872L131.04 213.056C130.144 213.76 129.024 214.112 127.68 214.112C126.144 214.112 124.8 213.536 123.648 212.384C122.496 211.232 121.92 209.856 121.92 208.256C121.92 206.208 122.912 204.544 124.896 203.264L138.72 194.048C139.36 193.6 140.064 193.28 140.832 193.088C141.664 192.896 142.432 192.8 143.136 192.8C144.992 192.8 146.464 193.376 147.552 194.528C148.64 195.616 149.184 196.992 149.184 198.656V254.144C149.184 255.808 148.576 257.216 147.36 258.368C146.208 259.456 144.704 260 142.848 260Z" fill="#212529"/>
<path d="M57.056 225.92L56.864 223.712C59.296 224.8 61.408 226.208 63.2 227.936C64.992 229.664 66.368 231.552 67.328 233.6C68.288 235.648 68.768 237.76 68.768 239.936C68.768 243.584 67.744 246.944 65.696 250.016C63.712 253.024 61.024 255.456 57.632 257.312C54.24 259.104 50.464 260 46.304 260C42.144 260 38.368 259.104 34.976 257.312C31.584 255.456 28.864 253.024 26.816 250.016C24.832 246.944 23.84 243.584 23.84 239.936C23.84 236.992 24.448 234.464 25.664 232.352C26.944 230.176 28.512 228.352 30.368 226.88C32.288 225.408 34.176 224.192 36.032 223.232L35.264 225.92C33.664 225.28 32.096 224.384 30.56 223.232C29.088 222.016 27.872 220.48 26.912 218.624C25.952 216.768 25.472 214.592 25.472 212.096C25.472 208.512 26.4 205.28 28.256 202.4C30.112 199.456 32.608 197.12 35.744 195.392C38.944 193.664 42.464 192.8 46.304 192.8C50.208 192.8 53.696 193.664 56.768 195.392C59.904 197.12 62.4 199.456 64.256 202.4C66.112 205.28 67.04 208.512 67.04 212.096C67.04 214.848 66.496 217.152 65.408 219.008C64.32 220.864 63.008 222.336 61.472 223.424C59.936 224.512 58.464 225.344 57.056 225.92ZM36.992 212.288C36.992 214.016 37.376 215.552 38.144 216.896C38.976 218.24 40.096 219.328 41.504 220.16C42.912 220.928 44.512 221.312 46.304 221.312C48.096 221.312 49.664 220.928 51.008 220.16C52.416 219.328 53.504 218.24 54.272 216.896C55.104 215.552 55.52 214.016 55.52 212.288C55.52 209.728 54.624 207.616 52.832 205.952C51.104 204.224 48.928 203.36 46.304 203.36C43.616 203.36 41.376 204.224 39.584 205.952C37.856 207.616 36.992 209.728 36.992 212.288ZM46.304 249.44C49.376 249.44 51.968 248.512 54.08 246.656C56.192 244.736 57.248 242.432 57.248 239.744C57.248 237.888 56.768 236.224 55.808 234.752C54.848 233.28 53.536 232.128 51.872 231.296C50.208 230.4 48.352 229.952 46.304 229.952C44.256 229.952 42.4 230.4 40.736 231.296C39.072 232.128 37.76 233.28 36.8 234.752C35.84 236.224 35.36 237.888 35.36 239.744C35.36 242.432 36.416 244.736 38.528 246.656C40.64 248.512 43.232 249.44 46.304 249.44Z" fill="#212529"/>
<path d="M39.2 171.48C37.6 171.48 36.192 170.968 34.976 169.944C33.824 168.856 33.248 167.512 33.248 165.912C33.248 165.016 33.44 164.152 33.824 163.32L57.344 112.344L58.4 114.936H30.656C29.12 114.936 27.84 114.424 26.816 113.4C25.792 112.376 25.28 111.096 25.28 109.56C25.28 108.088 25.792 106.872 26.816 105.912C27.84 104.888 29.12 104.376 30.656 104.376H64.064C65.728 104.376 67.168 104.92 68.384 106.008C69.664 107.032 70.304 108.376 70.304 110.04C70.304 110.872 70.112 111.736 69.728 112.632L44.48 167.832C44.032 168.984 43.296 169.88 42.272 170.52C41.312 171.16 40.288 171.48 39.2 171.48Z" fill="#055160"/>
<path d="M122.752 64.464C123.328 64.464 123.936 64.56 124.576 64.752C125.28 64.944 126.048 65.328 126.88 65.904C127.968 66.736 129.248 67.472 130.72 68.112C132.256 68.752 134.016 69.072 136 69.072C137.984 69.072 139.84 68.592 141.568 67.632C143.36 66.608 144.832 65.2 145.984 63.408C147.136 61.552 147.712 59.344 147.712 56.784C147.712 54.352 147.2 52.336 146.176 50.736C145.216 49.136 143.904 47.92 142.24 47.088C140.64 46.256 138.912 45.84 137.056 45.84C135.648 45.84 134.464 45.968 133.504 46.224C132.608 46.48 131.712 46.768 130.816 47.088C129.984 47.344 128.992 47.472 127.84 47.472C126.368 47.472 125.216 46.96 124.384 45.936C123.616 44.912 123.232 43.696 123.232 42.288C123.232 41.392 123.392 40.592 123.712 39.888C124.096 39.184 124.64 38.416 125.344 37.584L142.24 19.632L144.832 21.84H121.216C119.68 21.84 118.4 21.328 117.376 20.304C116.352 19.28 115.84 18 115.84 16.464C115.84 14.992 116.352 13.776 117.376 12.816C118.4 11.792 119.68 11.28 121.216 11.28H150.592C152.576 11.28 154.048 11.824 155.008 12.912C156.032 14 156.544 15.376 156.544 17.04C156.544 17.872 156.32 18.704 155.872 19.536C155.424 20.304 154.88 21.008 154.24 21.648L137.248 39.888L134.656 36.624C135.36 36.304 136.32 36.016 137.536 35.76C138.816 35.504 139.872 35.376 140.704 35.376C144.48 35.376 147.744 36.368 150.496 38.352C153.312 40.272 155.456 42.8 156.928 45.936C158.464 49.008 159.232 52.336 159.232 55.92C159.232 60.656 158.176 64.752 156.064 68.208C153.952 71.664 150.976 74.32 147.136 76.176C143.296 78.032 138.816 78.96 133.696 78.96C131.328 78.96 128.992 78.672 126.688 78.096C124.384 77.52 122.4 76.752 120.736 75.792C119.328 75.024 118.368 74.192 117.856 73.296C117.408 72.336 117.184 71.44 117.184 70.608C117.184 69.136 117.696 67.76 118.72 66.48C119.808 65.136 121.152 64.464 122.752 64.464Z" fill="#055160"/>
<path d="M225.136 78.96C222.768 78.96 220.24 78.608 217.552 77.904C214.864 77.136 212.656 76.048 210.928 74.64C210.096 73.936 209.424 73.04 208.912 71.952C208.464 70.8 208.24 69.712 208.24 68.688C208.24 67.6 208.688 66.576 209.584 65.616C210.544 64.656 211.888 64.176 213.616 64.176C214.768 64.176 216.208 64.784 217.936 66C218.96 66.64 220.08 67.216 221.296 67.728C222.512 68.24 223.76 68.496 225.04 68.496C228.112 68.496 230.768 67.952 233.008 66.864C235.248 65.712 236.976 64.144 238.192 62.16C239.408 60.176 240.016 57.84 240.016 55.152C240.016 52.72 239.44 50.64 238.288 48.912C237.2 47.184 235.728 45.84 233.872 44.88C232.08 43.92 230.128 43.44 228.016 43.44C226.032 43.44 224.304 43.76 222.832 44.4C221.36 45.04 220.016 45.712 218.8 46.416C217.584 47.056 216.368 47.376 215.152 47.376C213.04 47.376 211.472 46.928 210.448 46.032C209.424 45.072 208.784 43.952 208.528 42.672C208.272 41.392 208.208 40.24 208.336 39.216L211.312 15.888C211.568 14.544 212.208 13.456 213.232 12.624C214.32 11.728 215.6 11.28 217.072 11.28H244.816C246.352 11.28 247.632 11.792 248.656 12.816C249.68 13.84 250.192 15.12 250.192 16.656C250.192 18.128 249.68 19.376 248.656 20.4C247.632 21.36 246.352 21.84 244.816 21.84H220.048L221.104 20.976L218.512 40.464L217.264 36.816C217.648 36.176 218.48 35.568 219.76 34.992C221.04 34.416 222.512 33.936 224.176 33.552C225.84 33.104 227.472 32.88 229.072 32.88C233.36 32.88 237.2 33.872 240.592 35.856C243.984 37.776 246.64 40.432 248.56 43.824C250.544 47.152 251.536 50.928 251.536 55.152C251.536 59.952 250.448 64.144 248.272 67.728C246.096 71.312 243.024 74.096 239.056 76.08C235.152 78 230.512 78.96 225.136 78.96Z" fill="#055160"/>
<path d="M230.168 191.552C233.624 191.552 236.728 192.288 239.48 193.76C242.296 195.168 244.664 197.12 246.584 199.616C248.568 202.112 250.072 204.928 251.096 208.064C252.184 211.136 252.728 214.368 252.728 217.76C252.728 219.936 252.472 222.592 251.96 225.728C251.512 228.864 250.68 232.192 249.464 235.712C248.248 239.168 246.552 242.56 244.376 245.888C242.2 249.152 239.416 252.096 236.024 254.72C232.696 257.344 228.6 259.328 223.736 260.672C222.968 260.864 222.232 260.96 221.528 260.96C220.056 260.96 218.712 260.576 217.496 259.808C216.344 258.976 215.768 257.568 215.768 255.584C215.768 254.112 216.216 252.864 217.112 251.84C218.072 250.816 219.32 250.08 220.856 249.632C223.8 248.736 226.648 247.264 229.4 245.216C232.216 243.104 234.648 240.576 236.696 237.632C238.744 234.624 240.12 231.36 240.824 227.84L243.416 227.936C242.584 228.96 241.496 230.112 240.152 231.392C238.872 232.672 237.272 233.792 235.352 234.752C233.496 235.648 231.256 236.096 228.632 236.096C224.408 236.096 220.728 235.2 217.592 233.408C214.52 231.552 212.12 228.96 210.392 225.632C208.664 222.24 207.8 218.304 207.8 213.824C207.8 209.792 208.792 206.08 210.776 202.688C212.824 199.296 215.544 196.608 218.936 194.624C222.328 192.576 226.072 191.552 230.168 191.552ZM230.168 202.112C228.12 202.112 226.264 202.656 224.6 203.744C223 204.768 221.72 206.176 220.76 207.968C219.8 209.696 219.32 211.648 219.32 213.824C219.32 216.192 219.768 218.272 220.664 220.064C221.56 221.792 222.808 223.136 224.408 224.096C226.072 225.056 227.992 225.536 230.168 225.536C232.216 225.536 234.04 225.024 235.64 224C237.304 222.976 238.616 221.568 239.576 219.776C240.536 217.984 241.016 216 241.016 213.824C241.016 211.584 240.536 209.6 239.576 207.872C238.616 206.08 237.304 204.672 235.64 203.648C234.04 202.624 232.216 202.112 230.168 202.112Z" fill="#DC3545"/>
</g>
<defs>
<clipPath id="clip0_83_6">
<rect width="270" height="270" fill="white"/>
</clipPath>
</defs>
</svg>
