<svg width="20" height="20" viewBox="0 0 20 20" fill="none" xmlns="http://www.w3.org/2000/svg">
<path d="M0 1.55556C0 0.696447 0.696446 0 1.55556 0H18.4444C19.3036 0 20 0.696446 20 1.55556V18.4444C20 19.3036 19.3036 20 18.4444 20H1.55556C0.696447 20 0 19.3036 0 18.4444V1.55556Z" fill="white"/>
<path d="M0 13.4074H13.4074V20H1.55556C0.696447 20 0 19.3036 0 18.4444V13.4074Z" fill="#E9ECEF"/>
<path d="M20 13.2593H13.5556V6.66667H20V13.2593Z" fill="#E9ECEF"/>
<path d="M6.74074 0V6.51852H0V1.55556C0 0.696447 0.696446 0 1.55556 0H6.74074Z" fill="#E9ECEF"/>
<path d="M7.14815 3.23788e-09V6.25926H13.1481V3.23788e-09H13.8148V6.25926H20V6.92593H13.8148V13H20V13.6667H13.8148V20H13.1481V13.6667H7.14815V20H6.48148V13.6667H0V13H6.48148V6.92593H0V6.25926H6.48148V3.23788e-09H7.14815ZM7.14815 13H13.1481V6.92593H7.14815V13Z" fill="#CED4DA"/>
<path d="M4.6643 4.99556C4.77807 4.99556 4.87289 5.03348 4.94874 5.10933C5.02459 5.18519 5.06252 5.28 5.06252 5.39378C5.06252 5.50281 5.02459 5.59526 4.94874 5.67111C4.87289 5.74222 4.77807 5.77778 4.6643 5.77778H2.24652C2.12326 5.77778 2.02607 5.73985 1.95496 5.664C1.88385 5.58815 1.8483 5.49096 1.8483 5.37244C1.8483 5.25393 1.89096 5.14963 1.9763 5.05956L3.52652 3.40267C3.70193 3.21304 3.83941 3.01867 3.93896 2.81956C4.04326 2.62044 4.09541 2.44741 4.09541 2.30044C4.09541 2.06341 4.02667 1.87378 3.88919 1.73156C3.7517 1.58459 3.56919 1.51111 3.34163 1.51111C3.25156 1.51111 3.15911 1.53244 3.0643 1.57511C2.96948 1.61778 2.87704 1.67704 2.78696 1.75289C2.70163 1.82874 2.62104 1.91644 2.54518 2.016C2.4883 2.09185 2.43141 2.13926 2.37452 2.15822C2.31763 2.17719 2.26548 2.18667 2.21807 2.18667C2.11378 2.18667 2.01659 2.14874 1.92652 2.07289C1.84118 1.9923 1.79852 1.89985 1.79852 1.79556C1.79852 1.71496 1.82459 1.63674 1.87674 1.56089C1.93363 1.48504 2.00237 1.40681 2.08296 1.32622C2.20148 1.2077 2.33422 1.10341 2.48118 1.01333C2.62815 0.923259 2.77985 0.854518 2.9363 0.807111C3.09274 0.754963 3.24444 0.728889 3.39141 0.728889C3.70904 0.728889 3.984 0.792889 4.2163 0.920889C4.45333 1.04415 4.63585 1.22193 4.76385 1.45422C4.89185 1.68178 4.95585 1.952 4.95585 2.26489C4.95585 2.52563 4.87763 2.81719 4.72118 3.13956C4.56948 3.45719 4.36326 3.75585 4.10252 4.03556L3.14252 5.05956L3.0643 4.99556H4.6643Z" fill="#212529"/>
<path d="M17.507 12.6667C17.3884 12.6667 17.2889 12.6264 17.2083 12.5458C17.1277 12.4604 17.0874 12.3561 17.0874 12.2329V8.89067L17.2367 8.92622L15.8643 10.6258L15.8287 10.5333H18.3461C18.4599 10.5333 18.5547 10.5713 18.6305 10.6471C18.7064 10.723 18.7443 10.8178 18.7443 10.9316C18.7443 11.0406 18.7064 11.133 18.6305 11.2089C18.5547 11.28 18.4599 11.3156 18.3461 11.3156H15.2385C15.139 11.3156 15.0418 11.2753 14.947 11.1947C14.8569 11.1141 14.8119 11.0145 14.8119 10.896C14.8119 10.7917 14.8474 10.6969 14.9185 10.6116L17.1656 7.85956C17.2036 7.80741 17.2533 7.76711 17.315 7.73867C17.3766 7.70548 17.4453 7.68889 17.5212 7.68889C17.6444 7.68889 17.744 7.73156 17.8199 7.81689C17.9004 7.89748 17.9407 7.99941 17.9407 8.12267V12.2329C17.9407 12.3561 17.8981 12.4604 17.8127 12.5458C17.7321 12.6264 17.6302 12.6667 17.507 12.6667Z" fill="#212529"/>
<path d="M10.5813 19.2593C10.4486 19.2593 10.3396 19.219 10.2542 19.1384C10.1689 19.053 10.1262 18.9487 10.1262 18.8255V15.2415L10.2258 15.3979L9.70667 15.7819C9.6403 15.8341 9.55733 15.8601 9.45778 15.8601C9.344 15.8601 9.24444 15.8175 9.15911 15.7321C9.07378 15.6468 9.03111 15.5449 9.03111 15.4264C9.03111 15.2747 9.10459 15.1514 9.25156 15.0566L10.2756 14.3739C10.323 14.3407 10.3751 14.317 10.432 14.3028C10.4936 14.2886 10.5505 14.2815 10.6027 14.2815C10.7401 14.2815 10.8492 14.3241 10.9298 14.4095C11.0104 14.4901 11.0507 14.592 11.0507 14.7153V18.8255C11.0507 18.9487 11.0056 19.053 10.9156 19.1384C10.8302 19.219 10.7188 19.2593 10.5813 19.2593Z" fill="#212529"/>
<path d="M4.22637 16.7348L4.21215 16.5713C4.3923 16.6519 4.54874 16.7561 4.68148 16.8841C4.81422 17.0121 4.91615 17.152 4.98726 17.3037C5.05837 17.4554 5.09393 17.6119 5.09393 17.773C5.09393 18.0433 5.01807 18.2921 4.86637 18.5197C4.71941 18.7425 4.5203 18.9227 4.26904 19.0601C4.01778 19.1929 3.73807 19.2593 3.42993 19.2593C3.12178 19.2593 2.84207 19.1929 2.59081 19.0601C2.33956 18.9227 2.13807 18.7425 1.98637 18.5197C1.83941 18.2921 1.76593 18.0433 1.76593 17.773C1.76593 17.555 1.81096 17.3677 1.90104 17.2113C1.99585 17.0501 2.112 16.915 2.24948 16.8059C2.3917 16.6969 2.53156 16.6068 2.66904 16.5357L2.61215 16.7348C2.49363 16.6874 2.37748 16.621 2.2637 16.5357C2.15467 16.4456 2.06459 16.3319 1.99348 16.1944C1.92237 16.0569 1.88681 15.8957 1.88681 15.7108C1.88681 15.4453 1.95556 15.2059 2.09304 14.9926C2.23052 14.7745 2.41541 14.6015 2.6477 14.4735C2.88474 14.3455 3.14548 14.2815 3.42993 14.2815C3.71911 14.2815 3.97748 14.3455 4.20504 14.4735C4.43733 14.6015 4.62222 14.7745 4.7597 14.9926C4.89718 15.2059 4.96593 15.4453 4.96593 15.7108C4.96593 15.9147 4.92563 16.0853 4.84504 16.2228C4.76444 16.3603 4.66726 16.4693 4.55348 16.5499C4.4397 16.6305 4.33067 16.6921 4.22637 16.7348ZM2.74015 15.725C2.74015 15.853 2.76859 15.9668 2.82548 16.0664C2.88711 16.1659 2.97007 16.2465 3.07437 16.3081C3.17867 16.365 3.29718 16.3935 3.42993 16.3935C3.56267 16.3935 3.67881 16.365 3.77837 16.3081C3.88267 16.2465 3.96326 16.1659 4.02015 16.0664C4.08178 15.9668 4.11259 15.853 4.11259 15.725C4.11259 15.5354 4.04622 15.379 3.91348 15.2557C3.78548 15.1277 3.6243 15.0637 3.42993 15.0637C3.23081 15.0637 3.06489 15.1277 2.93215 15.2557C2.80415 15.379 2.74015 15.5354 2.74015 15.725ZM3.42993 18.477C3.65748 18.477 3.84948 18.4083 4.00593 18.2708C4.16237 18.1286 4.24059 17.9579 4.24059 17.7588C4.24059 17.6213 4.20504 17.4981 4.13393 17.389C4.06281 17.28 3.96563 17.1947 3.84237 17.133C3.71911 17.0667 3.58163 17.0335 3.42993 17.0335C3.27822 17.0335 3.14074 17.0667 3.01748 17.133C2.89422 17.1947 2.79704 17.28 2.72593 17.389C2.65481 17.4981 2.61926 17.6213 2.61926 17.7588C2.61926 17.9579 2.69748 18.1286 2.85393 18.2708C3.01037 18.4083 3.20237 18.477 3.42993 18.477Z" fill="#212529"/>
<path d="M2.9037 12.7022C2.78519 12.7022 2.68089 12.6643 2.59081 12.5884C2.50548 12.5079 2.46281 12.4083 2.46281 12.2898C2.46281 12.2234 2.47704 12.1594 2.50548 12.0978L4.2477 8.32178L4.32593 8.51378H2.27081C2.15704 8.51378 2.06222 8.47585 1.98637 8.4C1.91052 8.32415 1.87259 8.22933 1.87259 8.11556C1.87259 8.00652 1.91052 7.91644 1.98637 7.84533C2.06222 7.76948 2.15704 7.73156 2.27081 7.73156H4.74548C4.86874 7.73156 4.97541 7.77185 5.06548 7.85244C5.1603 7.9283 5.2077 8.02785 5.2077 8.15111C5.2077 8.21274 5.19348 8.27674 5.16504 8.34311L3.29481 12.432C3.26163 12.5173 3.20711 12.5837 3.13126 12.6311C3.06015 12.6785 2.9843 12.7022 2.9037 12.7022Z" fill="#055160"/>
<path d="M9.09274 4.77511C9.13541 4.77511 9.18044 4.78222 9.22785 4.79644C9.28 4.81067 9.33689 4.83911 9.39852 4.88178C9.47911 4.94341 9.57393 4.99793 9.68296 5.04533C9.79674 5.09274 9.92711 5.11644 10.0741 5.11644C10.221 5.11644 10.3585 5.08089 10.4865 5.00978C10.6193 4.93393 10.7283 4.82963 10.8136 4.69689C10.899 4.55941 10.9416 4.39585 10.9416 4.20622C10.9416 4.02607 10.9037 3.87674 10.8279 3.75822C10.7567 3.6397 10.6596 3.54963 10.5363 3.488C10.4178 3.42637 10.2898 3.39556 10.1523 3.39556C10.048 3.39556 9.9603 3.40504 9.88919 3.424C9.82281 3.44296 9.75644 3.4643 9.69007 3.488C9.62844 3.50696 9.55496 3.51644 9.46963 3.51644C9.36059 3.51644 9.27526 3.47852 9.21363 3.40267C9.15674 3.32681 9.1283 3.23674 9.1283 3.13244C9.1283 3.06607 9.14015 3.00681 9.16385 2.95467C9.1923 2.90252 9.23259 2.84563 9.28474 2.784L10.5363 1.45422L10.7283 1.61778H8.97896C8.86518 1.61778 8.77037 1.57985 8.69452 1.504C8.61867 1.42815 8.58074 1.33333 8.58074 1.21956C8.58074 1.11052 8.61867 1.02044 8.69452 0.949333C8.77037 0.873481 8.86518 0.835555 8.97896 0.835555H11.155C11.3019 0.835555 11.411 0.875852 11.4821 0.956444C11.5579 1.03704 11.5959 1.13896 11.5959 1.26222C11.5959 1.32385 11.5793 1.38548 11.5461 1.44711C11.5129 1.504 11.4726 1.55615 11.4252 1.60356L10.1665 2.95467L9.97452 2.71289C10.0267 2.68918 10.0978 2.66785 10.1879 2.64889C10.2827 2.62993 10.3609 2.62044 10.4225 2.62044C10.7022 2.62044 10.944 2.69393 11.1479 2.84089C11.3564 2.98311 11.5153 3.17037 11.6243 3.40267C11.7381 3.63022 11.795 3.87674 11.795 4.14222C11.795 4.49304 11.7167 4.79644 11.5603 5.05244C11.4039 5.30844 11.1834 5.50519 10.899 5.64267C10.6145 5.78015 10.2827 5.84889 9.90341 5.84889C9.728 5.84889 9.55496 5.82756 9.3843 5.78489C9.21363 5.74222 9.06667 5.68533 8.94341 5.61422C8.83911 5.55733 8.768 5.4957 8.73007 5.42933C8.69689 5.35822 8.6803 5.29185 8.6803 5.23022C8.6803 5.12119 8.71822 5.01926 8.79407 4.92444C8.87467 4.82489 8.97422 4.77511 9.09274 4.77511Z" fill="#055160"/>
<path d="M16.6767 5.84889C16.5013 5.84889 16.3141 5.82281 16.115 5.77067C15.9159 5.71378 15.7523 5.63319 15.6243 5.52889C15.5627 5.47674 15.5129 5.41037 15.475 5.32978C15.4418 5.24444 15.4252 5.16385 15.4252 5.088C15.4252 5.00741 15.4584 4.93156 15.5247 4.86044C15.5959 4.78933 15.6954 4.75378 15.8234 4.75378C15.9087 4.75378 16.0154 4.79881 16.1434 4.88889C16.2193 4.9363 16.3022 4.97896 16.3923 5.01689C16.4824 5.05481 16.5748 5.07378 16.6696 5.07378C16.8972 5.07378 17.0939 5.03348 17.2599 4.95289C17.4258 4.86756 17.5538 4.75141 17.6439 4.60444C17.7339 4.45748 17.779 4.28444 17.779 4.08533C17.779 3.90519 17.7363 3.75111 17.651 3.62311C17.5704 3.49511 17.4613 3.39556 17.3239 3.32444C17.1911 3.25333 17.0465 3.21778 16.8901 3.21778C16.7431 3.21778 16.6151 3.24148 16.5061 3.28889C16.397 3.3363 16.2975 3.38607 16.2074 3.43822C16.1173 3.48563 16.0273 3.50933 15.9372 3.50933C15.7807 3.50933 15.6646 3.47615 15.5887 3.40978C15.5129 3.33867 15.4655 3.2557 15.4465 3.16089C15.4276 3.06607 15.4228 2.98074 15.4323 2.90489L15.6527 1.17689C15.6717 1.07733 15.7191 0.99674 15.795 0.935111C15.8756 0.86874 15.9704 0.835555 16.0794 0.835555H18.1345C18.2483 0.835555 18.3431 0.873481 18.419 0.949333C18.4948 1.02518 18.5327 1.12 18.5327 1.23378C18.5327 1.34281 18.4948 1.43526 18.419 1.51111C18.3431 1.58222 18.2483 1.61778 18.1345 1.61778H16.2999L16.3781 1.55378L16.1861 2.99733L16.0936 2.72711C16.1221 2.6797 16.1837 2.63467 16.2785 2.592C16.3733 2.54933 16.4824 2.51378 16.6056 2.48533C16.7289 2.45215 16.8498 2.43556 16.9683 2.43556C17.2859 2.43556 17.5704 2.50904 17.8216 2.656C18.0729 2.79822 18.2696 2.99496 18.4119 3.24622C18.5588 3.49274 18.6323 3.77244 18.6323 4.08533C18.6323 4.44089 18.5517 4.75141 18.3905 5.01689C18.2293 5.28237 18.0018 5.48859 17.7079 5.63556C17.4187 5.77778 17.075 5.84889 16.6767 5.84889Z" fill="#055160"/>
<path d="M17.0495 14.189C17.3055 14.189 17.5354 14.2436 17.7393 14.3526C17.9479 14.4569 18.1233 14.6015 18.2655 14.7864C18.4124 14.9713 18.5239 15.1799 18.5997 15.4121C18.6803 15.6397 18.7206 15.8791 18.7206 16.1304C18.7206 16.2916 18.7016 16.4883 18.6637 16.7206C18.6305 16.9529 18.5689 17.1994 18.4788 17.4601C18.3887 17.7161 18.2631 17.9674 18.1019 18.2139C17.9407 18.4557 17.7345 18.6738 17.4833 18.8681C17.2367 19.0625 16.9333 19.2095 16.573 19.309C16.5161 19.3233 16.4616 19.3304 16.4095 19.3304C16.3004 19.3304 16.2009 19.3019 16.1108 19.245C16.0255 19.1834 15.9828 19.0791 15.9828 18.9321C15.9828 18.8231 16.016 18.7307 16.0824 18.6548C16.1535 18.579 16.2459 18.5244 16.3597 18.4913C16.5778 18.4249 16.7887 18.3159 16.9926 18.1641C17.2012 18.0077 17.3813 17.8204 17.533 17.6024C17.6847 17.3796 17.7867 17.1378 17.8388 16.877L18.0308 16.8841C17.9692 16.96 17.8886 17.0453 17.789 17.1401C17.6942 17.235 17.5757 17.3179 17.4335 17.389C17.296 17.4554 17.1301 17.4886 16.9357 17.4886C16.6228 17.4886 16.3502 17.4222 16.1179 17.2895C15.8904 17.152 15.7126 16.96 15.5846 16.7135C15.4566 16.4622 15.3926 16.1707 15.3926 15.8388C15.3926 15.5401 15.4661 15.2652 15.613 15.0139C15.7647 14.7627 15.9662 14.5636 16.2175 14.4166C16.4687 14.2649 16.7461 14.189 17.0495 14.189ZM17.0495 14.9713C16.8978 14.9713 16.7603 15.0116 16.637 15.0921C16.5185 15.168 16.4237 15.2723 16.3526 15.405C16.2815 15.533 16.2459 15.6776 16.2459 15.8388C16.2459 16.0142 16.2791 16.1683 16.3455 16.301C16.4119 16.429 16.5043 16.5286 16.6228 16.5997C16.7461 16.6708 16.8883 16.7064 17.0495 16.7064C17.2012 16.7064 17.3363 16.6684 17.4548 16.5926C17.5781 16.5167 17.6753 16.4124 17.7464 16.2797C17.8175 16.147 17.853 16 17.853 15.8388C17.853 15.6729 17.8175 15.5259 17.7464 15.3979C17.6753 15.2652 17.5781 15.1609 17.4548 15.085C17.3363 15.0092 17.2012 14.9713 17.0495 14.9713Z" fill="#DC3545"/>
</svg>
